<svg width="87" height="29" viewBox="0 0 87 29" fill="none" xmlns="http://www.w3.org/2000/svg">
<path d="M34.5965 0.122448L50.2479 0.201267L51.0401 0.793098C52.8917 4.0454 55.3722 7.18294 57.1823 10.4242C58.1961 12.2398 58.1296 12.7362 57.235 14.567C56.2281 16.6287 54.7808 19.0292 53.5828 21.0149C53.1646 21.7077 52.3835 23.2426 51.8004 23.6602C50.6287 24.4995 49.6413 24.0308 48.4225 24.01C43.7995 23.9298 39.1793 24.0681 34.5688 24.1552C34.3001 24.1607 34.0314 24.3129 33.7378 24.3018C32.8348 24.2672 32.5869 23.4846 33.037 22.7655C34.7654 19.6916 37.4481 16.6439 39.0408 13.5493C39.5422 12.5744 39.7527 12.0517 39.3289 10.9649C38.7098 9.3788 37.1379 7.18985 36.275 5.58029C35.7543 4.60958 34.3874 2.38606 34.1491 1.48172C33.9968 0.902338 34.0093 0.410067 34.5979 0.123831L34.5965 0.122448ZM42.5309 19.8672H46.3395C46.4808 19.8672 46.7564 19.5478 46.8603 19.4192C47.7272 18.3378 49.813 14.8311 50.4002 13.5507C50.8559 12.5564 50.8808 11.8319 50.4002 10.8349C49.4252 8.81048 47.507 6.71003 46.5279 4.60681C46.4379 4.42705 45.7592 4.10348 45.647 4.10348H42.5309L46.4849 10.7339C46.9489 11.7987 46.935 12.4403 46.4628 13.4912L42.5309 19.8672Z" fill="#181416"/>
<path d="M9.36109 0.0937323C9.7198 0.406241 9.73088 0.826607 9.71564 1.27186C9.61316 4.38174 8.73371 7.82902 8.60075 10.95C8.58552 11.3012 8.49411 11.7423 8.80711 11.9829C10.7793 9.02375 12.426 5.85302 14.358 2.87036C14.9868 1.90103 15.7097 0.24169 16.9742 0.089584C17.9229 -0.025187 20.7537 -0.0334837 21.6927 0.0868184C22.4711 0.186379 22.3991 0.841818 22.2315 1.46822L14.9688 13.1721C14.9258 13.5925 16.0629 15.91 16.3302 16.5032C17.4479 18.9867 18.7123 21.4162 19.8895 23.8721C20.0696 24.5123 19.9976 25.2991 19.3009 25.4982C18.4339 25.7471 15.2402 26.2159 14.34 26.2311C13.5894 26.2435 13.1046 25.8093 12.7252 25.2175L8.66308 15.8602L8.18388 15.7178L6.63966 27.383C6.45546 27.6664 6.12584 27.7259 5.82946 27.8185C4.21183 28.3219 2.27012 28.4657 0.626179 28.9994C0.0611172 29.0216 -0.0261351 28.3952 0.00571892 27.961L2.65652 1.14326C2.61082 0.888833 3.09417 0.0937323 3.26729 0.0937323H9.36109Z" fill="#181416"/>
<path d="M75.3532 6.7308C76.0775 5.04657 76.6066 3.0042 77.4057 1.38219C77.7312 0.719839 78.0663 0.18885 78.8821 0.0906724C79.7934 -0.0185675 82.5647 -0.0296298 83.4635 0.0879068C84.2017 0.184702 84.4371 0.977036 84.3277 1.65045L79.6493 13.8425L86.7362 27.2416C87.0782 27.9496 87.2638 29.0821 86.1559 28.9383C85.3886 28.8387 81.7462 27.962 81.2393 27.6122C80.821 27.3232 80.3764 26.6996 80.0898 26.2709C78.8544 24.4207 77.9528 22.1336 76.6689 20.2835L74.2743 25.4965C73.935 26.0967 73.3062 26.2585 72.6581 26.2308C72.0487 26.2045 67.8772 25.5947 67.5559 25.4081C67.1695 25.1827 67.0795 24.2825 67.2484 23.8745L72.1637 13.3156C72.1401 13.0515 72.0085 12.8358 71.895 12.6062C70.0613 8.88103 66.9105 5.16963 64.9065 1.47069C64.7403 0.844289 64.6683 0.18885 65.4452 0.0892896C66.4286 -0.0365437 69.0115 -0.00888803 70.0294 0.0892896C70.4352 0.128008 70.6236 0.183319 70.9684 0.396267C72.2038 1.15818 73.9129 5.15996 74.9613 6.50402C75.0804 6.65751 75.0998 6.79026 75.3518 6.73356L75.3532 6.7308Z" fill="#181416"/>
<path d="M59.2465 6.75714C59.7021 6.62024 62.0593 6.68938 62.6881 6.72534C64.5301 6.82904 65.0771 6.87329 66.1629 8.37223C67.1462 9.73151 68.8636 12.2468 68.5063 13.9296C68.1933 15.4051 64.7323 22.048 63.7919 23.6036C63.0509 24.8287 62.58 24.8937 61.1591 24.8439C60.2035 24.4886 56.8602 24.8038 56.2993 24.1678C55.8505 23.6589 56.068 23.15 56.3062 22.6273C57.5831 19.812 59.7838 16.9441 61.0275 14.0679C62.1175 11.5457 60.0151 10.3012 59.0373 8.29756C58.8171 7.84677 58.5166 6.97838 59.2465 6.75852V6.75714Z" fill="#181416"/>
<path d="M27.1916 6.9023C27.5046 6.58841 31.6927 6.5248 32.3574 6.58702C33.3366 6.67967 33.6815 7.01292 34.1939 7.79558C34.6343 8.46761 35.9472 10.8197 36.022 11.5014C36.2076 13.176 35.3766 13.9725 34.5554 15.293C32.7341 18.2259 30.7301 21.0675 28.8036 23.9313C28.3452 24.3406 27.8203 24.5798 27.2151 24.696C26.1404 24.902 24.0546 25.0748 22.9328 25.1205C21.8636 25.1633 21.3429 25.0389 21.7708 23.822C23.5533 20.3913 26.6182 17.0187 28.3258 13.6365C28.697 12.9022 28.8272 12.1112 28.6153 11.2899C28.3715 10.344 26.3052 7.79005 27.1902 6.9023H27.1916Z" fill="#181416"/>
<path d="M55.0938 0.122794C55.6062 -0.0237806 59.0769 0.0218513 59.7791 0.0882249C60.3691 0.143536 60.797 0.305322 61.2264 0.717391C61.4854 0.966292 62.4673 2.46799 62.5989 2.80401C63.4755 5.03029 61.2748 4.26285 60.0561 4.23657C58.3027 4.19786 57.0632 4.70534 55.8292 3.20225C55.3708 2.64361 53.8085 0.491998 55.0938 0.124177V0.122794Z" fill="#181416"/>
<path d="M31.4172 4.06787C31.2455 4.22965 30.9241 4.22827 30.697 4.24763C29.9173 4.314 26.0519 4.34719 25.5325 4.13701C24.7528 3.82312 23.1352 0.691113 24.25 0.161507C24.5312 0.0287599 28.5905 0.0287599 29.1736 0.085454C29.7566 0.142148 30.1874 0.326058 30.5433 0.792056C30.8175 1.1502 31.7607 3.07503 31.7039 3.44423C31.6886 3.54379 31.4823 4.00426 31.4158 4.06649L31.4172 4.06787Z" fill="#181416"/>
</svg>
